<mxfile host="app.diagrams.net" modified="2021-10-09T08:14:20.677Z" agent="5.0 (Windows NT 10.0; Win64; x64) AppleWebKit/537.36 (KHTML, like Gecko) Chrome/94.0.4606.71 Safari/537.36" etag="t0DsScyJzmsYRGSG4yoo" version="15.4.3" type="github" pages="5">
  <diagram id="mOvfN1anRyvzSEs-EWom" name="jmm">
    <mxGraphModel dx="782" dy="436" grid="1" gridSize="10" guides="1" tooltips="1" connect="1" arrows="1" fold="1" page="1" pageScale="1" pageWidth="827" pageHeight="1169" math="0" shadow="0">
      <root>
        <mxCell id="0" />
        <mxCell id="1" parent="0" />
        <mxCell id="h8BcobeFHt85jPjWPx7x-4" value="" style="edgeStyle=orthogonalEdgeStyle;rounded=0;orthogonalLoop=1;jettySize=auto;html=1;" parent="1" source="h8BcobeFHt85jPjWPx7x-1" target="h8BcobeFHt85jPjWPx7x-3" edge="1">
          <mxGeometry relative="1" as="geometry" />
        </mxCell>
        <mxCell id="h8BcobeFHt85jPjWPx7x-1" value="线程A" style="rounded=1;whiteSpace=wrap;html=1;strokeColor=#0000FF;" parent="1" vertex="1">
          <mxGeometry x="130" y="100" width="110" height="30" as="geometry" />
        </mxCell>
        <mxCell id="h8BcobeFHt85jPjWPx7x-10" style="edgeStyle=orthogonalEdgeStyle;rounded=0;orthogonalLoop=1;jettySize=auto;html=1;entryX=0.5;entryY=0;entryDx=0;entryDy=0;" parent="1" source="h8BcobeFHt85jPjWPx7x-2" target="h8BcobeFHt85jPjWPx7x-9" edge="1">
          <mxGeometry relative="1" as="geometry" />
        </mxCell>
        <mxCell id="h8BcobeFHt85jPjWPx7x-2" value="线程B" style="rounded=1;whiteSpace=wrap;html=1;strokeColor=#66FF66;" parent="1" vertex="1">
          <mxGeometry x="359" y="100" width="110" height="30" as="geometry" />
        </mxCell>
        <mxCell id="h8BcobeFHt85jPjWPx7x-16" style="edgeStyle=orthogonalEdgeStyle;rounded=0;orthogonalLoop=1;jettySize=auto;html=1;" parent="1" source="h8BcobeFHt85jPjWPx7x-3" edge="1">
          <mxGeometry relative="1" as="geometry">
            <mxPoint x="185" y="250" as="targetPoint" />
          </mxGeometry>
        </mxCell>
        <mxCell id="h8BcobeFHt85jPjWPx7x-3" value="加载i=0到寄存器" style="whiteSpace=wrap;html=1;rounded=1;strokeColor=#0000FF;" parent="1" vertex="1">
          <mxGeometry x="126.25" y="180" width="117.5" height="35" as="geometry" />
        </mxCell>
        <mxCell id="h8BcobeFHt85jPjWPx7x-8" value="" style="edgeStyle=orthogonalEdgeStyle;rounded=0;orthogonalLoop=1;jettySize=auto;html=1;" parent="1" source="h8BcobeFHt85jPjWPx7x-5" target="h8BcobeFHt85jPjWPx7x-7" edge="1">
          <mxGeometry relative="1" as="geometry" />
        </mxCell>
        <mxCell id="h8BcobeFHt85jPjWPx7x-5" value="i++" style="whiteSpace=wrap;html=1;rounded=1;strokeColor=#0000FF;" parent="1" vertex="1">
          <mxGeometry x="126.25" y="320" width="117.5" height="35" as="geometry" />
        </mxCell>
        <mxCell id="h8BcobeFHt85jPjWPx7x-7" value="i=1写入内存" style="whiteSpace=wrap;html=1;rounded=1;strokeColor=#0000FF;" parent="1" vertex="1">
          <mxGeometry x="122.5" y="382.5" width="125" height="37.5" as="geometry" />
        </mxCell>
        <mxCell id="h8BcobeFHt85jPjWPx7x-12" value="" style="edgeStyle=orthogonalEdgeStyle;rounded=0;orthogonalLoop=1;jettySize=auto;html=1;" parent="1" source="h8BcobeFHt85jPjWPx7x-9" target="h8BcobeFHt85jPjWPx7x-11" edge="1">
          <mxGeometry relative="1" as="geometry" />
        </mxCell>
        <mxCell id="h8BcobeFHt85jPjWPx7x-9" value="加载i=0到寄存器" style="whiteSpace=wrap;html=1;rounded=1;strokeColor=#66FF66;" parent="1" vertex="1">
          <mxGeometry x="355.25" y="180" width="117.5" height="35" as="geometry" />
        </mxCell>
        <mxCell id="h8BcobeFHt85jPjWPx7x-19" value="" style="edgeStyle=orthogonalEdgeStyle;rounded=0;orthogonalLoop=1;jettySize=auto;html=1;" parent="1" source="h8BcobeFHt85jPjWPx7x-11" target="h8BcobeFHt85jPjWPx7x-18" edge="1">
          <mxGeometry relative="1" as="geometry" />
        </mxCell>
        <mxCell id="h8BcobeFHt85jPjWPx7x-11" value="i++" style="whiteSpace=wrap;html=1;rounded=1;strokeColor=#66FF66;" parent="1" vertex="1">
          <mxGeometry x="355.25" y="260" width="119" height="27.5" as="geometry" />
        </mxCell>
        <mxCell id="h8BcobeFHt85jPjWPx7x-20" style="edgeStyle=orthogonalEdgeStyle;rounded=0;orthogonalLoop=1;jettySize=auto;html=1;exitX=1;exitY=0.5;exitDx=0;exitDy=0;entryX=0;entryY=0.5;entryDx=0;entryDy=0;dashed=1;" parent="1" source="h8BcobeFHt85jPjWPx7x-17" target="h8BcobeFHt85jPjWPx7x-9" edge="1">
          <mxGeometry relative="1" as="geometry" />
        </mxCell>
        <mxCell id="h8BcobeFHt85jPjWPx7x-17" value="线程切换" style="rounded=1;whiteSpace=wrap;html=1;strokeColor=#0000FF;" parent="1" vertex="1">
          <mxGeometry x="126.25" y="240" width="110" height="36" as="geometry" />
        </mxCell>
        <mxCell id="h8BcobeFHt85jPjWPx7x-21" style="edgeStyle=orthogonalEdgeStyle;rounded=0;orthogonalLoop=1;jettySize=auto;html=1;entryX=1;entryY=0.5;entryDx=0;entryDy=0;" parent="1" source="h8BcobeFHt85jPjWPx7x-18" target="h8BcobeFHt85jPjWPx7x-5" edge="1">
          <mxGeometry relative="1" as="geometry" />
        </mxCell>
        <mxCell id="h8BcobeFHt85jPjWPx7x-18" value="i=1写入内存" style="whiteSpace=wrap;html=1;rounded=1;strokeColor=#66FF66;" parent="1" vertex="1">
          <mxGeometry x="356.38" y="340" width="115.25" height="28.75" as="geometry" />
        </mxCell>
      </root>
    </mxGraphModel>
  </diagram>
  <diagram id="zZ_Z7UtPq7us6pP-cckv" name="condition">
    <mxGraphModel dx="782" dy="436" grid="1" gridSize="10" guides="1" tooltips="1" connect="1" arrows="1" fold="1" page="1" pageScale="1" pageWidth="827" pageHeight="1169" math="0" shadow="0">
      <root>
        <mxCell id="3El6z3DIFoJ7Y6CPshCF-0" />
        <mxCell id="3El6z3DIFoJ7Y6CPshCF-1" parent="3El6z3DIFoJ7Y6CPshCF-0" />
        <mxCell id="3El6z3DIFoJ7Y6CPshCF-2" value="" style="rounded=0;whiteSpace=wrap;html=1;" parent="3El6z3DIFoJ7Y6CPshCF-1" vertex="1">
          <mxGeometry x="120" y="230" width="110" height="40" as="geometry" />
        </mxCell>
        <mxCell id="3El6z3DIFoJ7Y6CPshCF-10" value="3" style="edgeStyle=orthogonalEdgeStyle;rounded=0;orthogonalLoop=1;jettySize=auto;html=1;exitX=0.5;exitY=1;exitDx=0;exitDy=0;entryX=0.25;entryY=1;entryDx=0;entryDy=0;strokeColor=#FF3333;" parent="3El6z3DIFoJ7Y6CPshCF-1" source="3El6z3DIFoJ7Y6CPshCF-3" target="3El6z3DIFoJ7Y6CPshCF-4" edge="1">
          <mxGeometry relative="1" as="geometry" />
        </mxCell>
        <mxCell id="3El6z3DIFoJ7Y6CPshCF-3" value="threadB" style="rounded=0;whiteSpace=wrap;html=1;" parent="3El6z3DIFoJ7Y6CPshCF-1" vertex="1">
          <mxGeometry x="120" y="370" width="110" height="40" as="geometry" />
        </mxCell>
        <mxCell id="3El6z3DIFoJ7Y6CPshCF-9" value="2" style="edgeStyle=orthogonalEdgeStyle;rounded=0;orthogonalLoop=1;jettySize=auto;html=1;exitX=0.75;exitY=0;exitDx=0;exitDy=0;entryX=0.5;entryY=0;entryDx=0;entryDy=0;strokeColor=#FFB366;" parent="3El6z3DIFoJ7Y6CPshCF-1" source="3El6z3DIFoJ7Y6CPshCF-4" target="3El6z3DIFoJ7Y6CPshCF-7" edge="1">
          <mxGeometry relative="1" as="geometry" />
        </mxCell>
        <mxCell id="3El6z3DIFoJ7Y6CPshCF-11" value="4" style="edgeStyle=orthogonalEdgeStyle;rounded=0;orthogonalLoop=1;jettySize=auto;html=1;exitX=0.75;exitY=1;exitDx=0;exitDy=0;entryX=0.5;entryY=1;entryDx=0;entryDy=0;strokeColor=#FF3333;" parent="3El6z3DIFoJ7Y6CPshCF-1" source="3El6z3DIFoJ7Y6CPshCF-4" target="3El6z3DIFoJ7Y6CPshCF-6" edge="1">
          <mxGeometry relative="1" as="geometry" />
        </mxCell>
        <mxCell id="3El6z3DIFoJ7Y6CPshCF-4" value="lock" style="rounded=0;whiteSpace=wrap;html=1;" parent="3El6z3DIFoJ7Y6CPshCF-1" vertex="1">
          <mxGeometry x="330" y="300" width="110" height="40" as="geometry" />
        </mxCell>
        <mxCell id="3El6z3DIFoJ7Y6CPshCF-8" value="1" style="edgeStyle=orthogonalEdgeStyle;rounded=0;orthogonalLoop=1;jettySize=auto;html=1;exitX=0.5;exitY=0;exitDx=0;exitDy=0;entryX=0.25;entryY=0;entryDx=0;entryDy=0;strokeColor=#FFB366;" parent="3El6z3DIFoJ7Y6CPshCF-1" source="3El6z3DIFoJ7Y6CPshCF-5" target="3El6z3DIFoJ7Y6CPshCF-4" edge="1">
          <mxGeometry relative="1" as="geometry" />
        </mxCell>
        <mxCell id="3El6z3DIFoJ7Y6CPshCF-5" value="threadA&amp;nbsp;" style="rounded=0;whiteSpace=wrap;html=1;" parent="3El6z3DIFoJ7Y6CPshCF-1" vertex="1">
          <mxGeometry x="120" y="230" width="110" height="40" as="geometry" />
        </mxCell>
        <mxCell id="3El6z3DIFoJ7Y6CPshCF-6" value="notify唤醒" style="rounded=0;whiteSpace=wrap;html=1;" parent="3El6z3DIFoJ7Y6CPshCF-1" vertex="1">
          <mxGeometry x="550" y="370" width="110" height="40" as="geometry" />
        </mxCell>
        <mxCell id="3El6z3DIFoJ7Y6CPshCF-7" value="wait等待" style="rounded=0;whiteSpace=wrap;html=1;" parent="3El6z3DIFoJ7Y6CPshCF-1" vertex="1">
          <mxGeometry x="550" y="230" width="110" height="40" as="geometry" />
        </mxCell>
        <mxCell id="3El6z3DIFoJ7Y6CPshCF-13" value="抢占到锁，调用wait()方法等待" style="text;html=1;strokeColor=none;fillColor=none;align=center;verticalAlign=middle;whiteSpace=wrap;rounded=0;" parent="3El6z3DIFoJ7Y6CPshCF-1" vertex="1">
          <mxGeometry x="310" y="160" width="205" height="50" as="geometry" />
        </mxCell>
        <mxCell id="3El6z3DIFoJ7Y6CPshCF-14" value="抢占到锁，调用notify()方法唤醒" style="text;html=1;strokeColor=none;fillColor=none;align=center;verticalAlign=middle;whiteSpace=wrap;rounded=0;" parent="3El6z3DIFoJ7Y6CPshCF-1" vertex="1">
          <mxGeometry x="282.5" y="440" width="205" height="50" as="geometry" />
        </mxCell>
      </root>
    </mxGraphModel>
  </diagram>
  <diagram id="yJQWaGpdtSe8dLStBLb_" name="uic黑名单">
    <mxGraphModel dx="1422" dy="796" grid="1" gridSize="10" guides="1" tooltips="1" connect="1" arrows="1" fold="1" page="1" pageScale="1" pageWidth="827" pageHeight="1169" math="0" shadow="0">
      <root>
        <mxCell id="Az4pW60opLtTzZfMNeGq-0" />
        <mxCell id="Az4pW60opLtTzZfMNeGq-1" parent="Az4pW60opLtTzZfMNeGq-0" />
        <mxCell id="Az4pW60opLtTzZfMNeGq-2" value="业务线&lt;br&gt;专车、绿色公务、帮忙、众悦、&lt;font color=&quot;#ff0000&quot;&gt;顺风车&lt;/font&gt;" style="rounded=1;whiteSpace=wrap;html=1;" vertex="1" parent="Az4pW60opLtTzZfMNeGq-1">
          <mxGeometry x="30" y="90" width="210" height="70" as="geometry" />
        </mxCell>
        <mxCell id="Az4pW60opLtTzZfMNeGq-3" value="" style="rounded=1;whiteSpace=wrap;html=1;" vertex="1" parent="Az4pW60opLtTzZfMNeGq-1">
          <mxGeometry x="300" y="90" width="410" height="70" as="geometry" />
        </mxCell>
        <mxCell id="Az4pW60opLtTzZfMNeGq-4" value="&lt;font color=&quot;#000000&quot;&gt;行程取消&lt;/font&gt;" style="rounded=1;whiteSpace=wrap;html=1;fontColor=#FF0000;strokeColor=#000000;" vertex="1" parent="Az4pW60opLtTzZfMNeGq-1">
          <mxGeometry x="310" y="126" width="120" height="30" as="geometry" />
        </mxCell>
        <mxCell id="Az4pW60opLtTzZfMNeGq-5" value="&lt;font color=&quot;#000000&quot;&gt;行程结束&lt;/font&gt;" style="rounded=1;whiteSpace=wrap;html=1;fontColor=#FF0000;strokeColor=#000000;" vertex="1" parent="Az4pW60opLtTzZfMNeGq-1">
          <mxGeometry x="440" y="126" width="120" height="30" as="geometry" />
        </mxCell>
        <mxCell id="Az4pW60opLtTzZfMNeGq-6" value="&lt;font color=&quot;#000000&quot;&gt;评价&lt;/font&gt;" style="rounded=1;whiteSpace=wrap;html=1;fontColor=#FF0000;strokeColor=#000000;" vertex="1" parent="Az4pW60opLtTzZfMNeGq-1">
          <mxGeometry x="580" y="126" width="120" height="30" as="geometry" />
        </mxCell>
        <mxCell id="Az4pW60opLtTzZfMNeGq-7" value="UIC" style="rounded=1;whiteSpace=wrap;html=1;" vertex="1" parent="Az4pW60opLtTzZfMNeGq-1">
          <mxGeometry x="30" y="290" width="220" height="70" as="geometry" />
        </mxCell>
        <mxCell id="Az4pW60opLtTzZfMNeGq-9" value="&lt;br&gt;&lt;br&gt;add() delete() batchQuery() queryByCustomerNo()" style="rounded=1;whiteSpace=wrap;html=1;" vertex="1" parent="Az4pW60opLtTzZfMNeGq-1">
          <mxGeometry x="295" y="290" width="410" height="70" as="geometry" />
        </mxCell>
        <mxCell id="Az4pW60opLtTzZfMNeGq-10" value="" style="html=1;shadow=0;dashed=0;align=center;verticalAlign=middle;shape=mxgraph.arrows2.arrow;dy=0.6;dx=40;direction=south;notch=0;fontColor=#000000;strokeColor=#000000;" vertex="1" parent="Az4pW60opLtTzZfMNeGq-1">
          <mxGeometry x="460" y="180" width="70" height="100" as="geometry" />
        </mxCell>
        <mxCell id="Az4pW60opLtTzZfMNeGq-11" value="黑名单拉黑&lt;br&gt;调用uic提供的能力" style="text;html=1;strokeColor=none;fillColor=none;align=center;verticalAlign=middle;whiteSpace=wrap;rounded=0;fontColor=#000000;" vertex="1" parent="Az4pW60opLtTzZfMNeGq-1">
          <mxGeometry x="480" y="190" width="160" height="30" as="geometry" />
        </mxCell>
        <mxCell id="Az4pW60opLtTzZfMNeGq-12" value="&lt;pre style=&quot;background-color: #ffffff ; color: #080808 ; font-family: &amp;#34;jetbrains mono&amp;#34; , monospace ; font-size: 9.8pt&quot;&gt;&lt;span style=&quot;color: #000000&quot;&gt;&lt;b&gt;UicDriverBlacklistApi&lt;/b&gt;&lt;/span&gt;&lt;/pre&gt;" style="text;html=1;strokeColor=none;fillColor=none;align=center;verticalAlign=middle;whiteSpace=wrap;rounded=0;fontColor=#000000;" vertex="1" parent="Az4pW60opLtTzZfMNeGq-1">
          <mxGeometry x="300" y="300" width="196" height="30" as="geometry" />
        </mxCell>
        <mxCell id="Az4pW60opLtTzZfMNeGq-13" value="&lt;b&gt;拉黑入口&lt;/b&gt;" style="text;html=1;strokeColor=none;fillColor=none;align=center;verticalAlign=middle;whiteSpace=wrap;rounded=0;fontColor=#000000;" vertex="1" parent="Az4pW60opLtTzZfMNeGq-1">
          <mxGeometry x="300" y="89" width="60" height="30" as="geometry" />
        </mxCell>
      </root>
    </mxGraphModel>
  </diagram>
  <diagram id="P10EtzRSNJPLKXQIh9uQ" name="司机发布行程匹配乘客列表">
    <mxGraphModel dx="774" dy="436" grid="1" gridSize="10" guides="1" tooltips="1" connect="1" arrows="1" fold="1" page="1" pageScale="1" pageWidth="827" pageHeight="1169" math="0" shadow="0">
      <root>
        <mxCell id="kpgQY1900mL5IY66AkYc-0" />
        <mxCell id="kpgQY1900mL5IY66AkYc-1" parent="kpgQY1900mL5IY66AkYc-0" />
        <mxCell id="kpgQY1900mL5IY66AkYc-3" value="&lt;pre style=&quot;background-color: #ffffff ; color: #080808 ; font-family: &amp;#34;jetbrains mono&amp;#34; , monospace ; font-size: 9.8pt&quot;&gt;&lt;span style=&quot;color: #000000&quot;&gt;DriverMatchPassengerApi&lt;/span&gt;&lt;/pre&gt;" style="shape=umlLifeline;perimeter=lifelinePerimeter;whiteSpace=wrap;html=1;container=1;collapsible=0;recursiveResize=0;outlineConnect=0;fontColor=#000000;strokeColor=#000000;" vertex="1" parent="kpgQY1900mL5IY66AkYc-1">
          <mxGeometry x="100" y="200" width="220" height="310" as="geometry" />
        </mxCell>
        <mxCell id="kpgQY1900mL5IY66AkYc-9" value="" style="html=1;points=[];perimeter=orthogonalPerimeter;fontColor=#000000;strokeColor=#000000;" vertex="1" parent="kpgQY1900mL5IY66AkYc-3">
          <mxGeometry x="105" y="60" width="10" height="80" as="geometry" />
        </mxCell>
        <mxCell id="kpgQY1900mL5IY66AkYc-10" value="matchPassengerList" style="text;html=1;strokeColor=none;fillColor=none;align=center;verticalAlign=middle;whiteSpace=wrap;rounded=0;fontColor=#000000;" vertex="1" parent="kpgQY1900mL5IY66AkYc-3">
          <mxGeometry x="115" y="50" width="110" height="30" as="geometry" />
        </mxCell>
        <mxCell id="kpgQY1900mL5IY66AkYc-4" value="hotwheel-agg" style="text;html=1;strokeColor=none;fillColor=none;align=center;verticalAlign=middle;whiteSpace=wrap;rounded=0;fontColor=#000000;" vertex="1" parent="kpgQY1900mL5IY66AkYc-1">
          <mxGeometry x="160" y="170" width="100" height="30" as="geometry" />
        </mxCell>
        <mxCell id="kpgQY1900mL5IY66AkYc-7" value="" style="endArrow=classic;html=1;rounded=0;fontColor=#000000;edgeStyle=orthogonalEdgeStyle;" edge="1" parent="kpgQY1900mL5IY66AkYc-1">
          <mxGeometry relative="1" as="geometry">
            <mxPoint x="90" y="270" as="sourcePoint" />
            <mxPoint x="190" y="270" as="targetPoint" />
          </mxGeometry>
        </mxCell>
        <mxCell id="kpgQY1900mL5IY66AkYc-8" value="寻找乘客中" style="edgeLabel;resizable=0;html=1;align=center;verticalAlign=middle;fontColor=#000000;strokeColor=#000000;" connectable="0" vertex="1" parent="kpgQY1900mL5IY66AkYc-7">
          <mxGeometry relative="1" as="geometry">
            <mxPoint x="-10" as="offset" />
          </mxGeometry>
        </mxCell>
        <mxCell id="kkDiWiYHyF-WH0CkEfLL-0" value="&lt;pre style=&quot;background-color: #ffffff ; color: #080808 ; font-family: &amp;#34;jetbrains mono&amp;#34; , monospace ; font-size: 9.8pt&quot;&gt;&lt;span style=&quot;color: #000000&quot;&gt;DriverMatchPassengerApi&lt;/span&gt;&lt;/pre&gt;" style="shape=umlLifeline;perimeter=lifelinePerimeter;whiteSpace=wrap;html=1;container=1;collapsible=0;recursiveResize=0;outlineConnect=0;fontColor=#000000;strokeColor=#000000;" vertex="1" parent="kpgQY1900mL5IY66AkYc-1">
          <mxGeometry x="350" y="200" width="220" height="310" as="geometry" />
        </mxCell>
        <mxCell id="kkDiWiYHyF-WH0CkEfLL-1" value="" style="html=1;points=[];perimeter=orthogonalPerimeter;fontColor=#000000;strokeColor=#000000;" vertex="1" parent="kkDiWiYHyF-WH0CkEfLL-0">
          <mxGeometry x="105" y="60" width="10" height="80" as="geometry" />
        </mxCell>
        <mxCell id="kkDiWiYHyF-WH0CkEfLL-2" value="matchPassengerList" style="text;html=1;strokeColor=none;fillColor=none;align=center;verticalAlign=middle;whiteSpace=wrap;rounded=0;fontColor=#000000;" vertex="1" parent="kkDiWiYHyF-WH0CkEfLL-0">
          <mxGeometry x="115" y="50" width="110" height="30" as="geometry" />
        </mxCell>
        <mxCell id="kkDiWiYHyF-WH0CkEfLL-3" value="hotwheel-route" style="text;html=1;strokeColor=none;fillColor=none;align=center;verticalAlign=middle;whiteSpace=wrap;rounded=0;fontColor=#000000;" vertex="1" parent="kpgQY1900mL5IY66AkYc-1">
          <mxGeometry x="400" y="170" width="100" height="30" as="geometry" />
        </mxCell>
      </root>
    </mxGraphModel>
  </diagram>
  <diagram id="6lOB5elMb-H9IVYKKppJ" name="乘客发布行程匹配司机列表">
    <mxGraphModel dx="1601" dy="436" grid="1" gridSize="10" guides="1" tooltips="1" connect="1" arrows="1" fold="1" page="1" pageScale="1" pageWidth="827" pageHeight="1169" math="0" shadow="0">
      <root>
        <mxCell id="tTd5XeurAu-LsHAUUfJ8-0" />
        <mxCell id="tTd5XeurAu-LsHAUUfJ8-1" parent="tTd5XeurAu-LsHAUUfJ8-0" />
        <mxCell id="JHd_3gbWwWkndSf7Ne55-0" value="&lt;pre style=&quot;background-color: #ffffff ; color: #080808 ; font-family: &amp;#34;jetbrains mono&amp;#34; , monospace ; font-size: 9.8pt&quot;&gt;&lt;pre style=&quot;font-family: &amp;#34;jetbrains mono&amp;#34; , monospace ; font-size: 9.8pt&quot;&gt;&lt;span style=&quot;color: #000000&quot;&gt;PassengerMatchDriverApi&lt;/span&gt;&lt;/pre&gt;&lt;/pre&gt;" style="shape=umlLifeline;perimeter=lifelinePerimeter;whiteSpace=wrap;html=1;container=1;collapsible=0;recursiveResize=0;outlineConnect=0;fontColor=#000000;strokeColor=#000000;" vertex="1" parent="tTd5XeurAu-LsHAUUfJ8-1">
          <mxGeometry x="100" y="200" width="320" height="310" as="geometry" />
        </mxCell>
        <mxCell id="JHd_3gbWwWkndSf7Ne55-1" value="" style="html=1;points=[];perimeter=orthogonalPerimeter;fontColor=#000000;strokeColor=#000000;" vertex="1" parent="JHd_3gbWwWkndSf7Ne55-0">
          <mxGeometry x="105" y="60" width="15" height="80" as="geometry" />
        </mxCell>
        <mxCell id="zwzFxI7Tmcitpvf1WoeE-24" value="1，查询匹配状态下的行程" style="text;html=1;align=center;verticalAlign=middle;whiteSpace=wrap;rounded=0;shadow=0;" vertex="1" parent="JHd_3gbWwWkndSf7Ne55-0">
          <mxGeometry x="22.5" y="40" width="180" height="32" as="geometry" />
        </mxCell>
        <mxCell id="JHd_3gbWwWkndSf7Ne55-3" value="hotwheel-agg" style="text;html=1;strokeColor=none;fillColor=none;align=center;verticalAlign=middle;whiteSpace=wrap;rounded=0;fontColor=#000000;" vertex="1" parent="tTd5XeurAu-LsHAUUfJ8-1">
          <mxGeometry x="160" y="170" width="100" height="30" as="geometry" />
        </mxCell>
        <mxCell id="JHd_3gbWwWkndSf7Ne55-4" value="" style="endArrow=classic;html=1;rounded=0;fontColor=#000000;edgeStyle=orthogonalEdgeStyle;exitX=0.944;exitY=0.158;exitDx=0;exitDy=0;exitPerimeter=0;" edge="1" parent="tTd5XeurAu-LsHAUUfJ8-1" source="zwzFxI7Tmcitpvf1WoeE-9">
          <mxGeometry relative="1" as="geometry">
            <mxPoint x="-50" y="270" as="sourcePoint" />
            <mxPoint x="190" y="270" as="targetPoint" />
          </mxGeometry>
        </mxCell>
        <mxCell id="JHd_3gbWwWkndSf7Ne55-5" value="&lt;span style=&quot;color: rgb(0 , 98 , 122) ; font-family: &amp;#34;jetbrains mono&amp;#34; , monospace ; font-size: 9.8pt&quot;&gt;getPassengerMatchDriverList&lt;/span&gt;" style="edgeLabel;resizable=0;html=1;align=center;verticalAlign=middle;fontColor=#000000;strokeColor=#000000;" connectable="0" vertex="1" parent="JHd_3gbWwWkndSf7Ne55-4">
          <mxGeometry relative="1" as="geometry">
            <mxPoint y="-5" as="offset" />
          </mxGeometry>
        </mxCell>
        <mxCell id="cEPZh_uHa1H75nuR59wo-0" value="&lt;pre style=&quot;background-color: #ffffff ; color: #080808 ; font-family: &amp;#34;jetbrains mono&amp;#34; , monospace ; font-size: 9.8pt&quot;&gt;&lt;pre style=&quot;font-family: &amp;#34;jetbrains mono&amp;#34; , monospace ; font-size: 9.8pt&quot;&gt;&lt;pre style=&quot;font-family: &amp;#34;jetbrains mono&amp;#34; , monospace ; font-size: 9.8pt&quot;&gt;&lt;span style=&quot;color: #000000&quot;&gt;PassengerRouteQueryApi&lt;/span&gt;&lt;/pre&gt;&lt;/pre&gt;&lt;/pre&gt;" style="shape=umlLifeline;perimeter=lifelinePerimeter;whiteSpace=wrap;html=1;container=1;collapsible=0;recursiveResize=0;outlineConnect=0;fontColor=#000000;strokeColor=#000000;" vertex="1" parent="tTd5XeurAu-LsHAUUfJ8-1">
          <mxGeometry x="350" y="200" width="220" height="310" as="geometry" />
        </mxCell>
        <mxCell id="cEPZh_uHa1H75nuR59wo-1" value="" style="html=1;points=[];perimeter=orthogonalPerimeter;fontColor=#000000;strokeColor=#000000;" vertex="1" parent="cEPZh_uHa1H75nuR59wo-0">
          <mxGeometry x="105" y="60" width="10" height="190" as="geometry" />
        </mxCell>
        <mxCell id="cEPZh_uHa1H75nuR59wo-3" value="hotwheel-route" style="text;html=1;strokeColor=none;fillColor=none;align=center;verticalAlign=middle;whiteSpace=wrap;rounded=0;fontColor=#000000;" vertex="1" parent="tTd5XeurAu-LsHAUUfJ8-1">
          <mxGeometry x="410" y="170" width="100" height="30" as="geometry" />
        </mxCell>
        <mxCell id="zwzFxI7Tmcitpvf1WoeE-1" value="&lt;pre style=&quot;background-color: #ffffff ; color: #080808 ; font-family: &amp;#34;jetbrains mono&amp;#34; , monospace ; font-size: 9.8pt&quot;&gt;&lt;pre style=&quot;font-family: &amp;#34;jetbrains mono&amp;#34; , monospace ; font-size: 9.8pt&quot;&gt;queryMatchStatusRouteByRouteId&lt;/pre&gt;&lt;/pre&gt;" style="edgeStyle=orthogonalEdgeStyle;rounded=0;orthogonalLoop=1;jettySize=auto;html=1;fontColor=#000000;sketch=1;" edge="1" parent="tTd5XeurAu-LsHAUUfJ8-1" source="JHd_3gbWwWkndSf7Ne55-1" target="cEPZh_uHa1H75nuR59wo-1">
          <mxGeometry relative="1" as="geometry">
            <Array as="points">
              <mxPoint x="340" y="280" />
              <mxPoint x="340" y="280" />
            </Array>
          </mxGeometry>
        </mxCell>
        <mxCell id="zwzFxI7Tmcitpvf1WoeE-2" style="edgeStyle=orthogonalEdgeStyle;rounded=0;orthogonalLoop=1;jettySize=auto;html=1;fontColor=#000000;dashed=1;" edge="1" parent="tTd5XeurAu-LsHAUUfJ8-1" source="cEPZh_uHa1H75nuR59wo-1">
          <mxGeometry relative="1" as="geometry">
            <mxPoint x="221" y="320" as="targetPoint" />
            <Array as="points">
              <mxPoint x="221" y="320" />
            </Array>
          </mxGeometry>
        </mxCell>
        <mxCell id="zwzFxI7Tmcitpvf1WoeE-3" value="ifnull 已被车主接单或过期" style="edgeLabel;html=1;align=center;verticalAlign=middle;resizable=0;points=[];fontColor=#000000;" vertex="1" connectable="0" parent="zwzFxI7Tmcitpvf1WoeE-2">
          <mxGeometry x="-0.1652" y="2" relative="1" as="geometry">
            <mxPoint as="offset" />
          </mxGeometry>
        </mxCell>
        <mxCell id="zwzFxI7Tmcitpvf1WoeE-8" value="&lt;pre style=&quot;background-color: #ffffff ; color: #080808 ; font-family: &amp;#34;jetbrains mono&amp;#34; , monospace ; font-size: 9.8pt&quot;&gt;&lt;pre style=&quot;font-family: &amp;#34;jetbrains mono&amp;#34; , monospace ; font-size: 9.8pt&quot;&gt;&lt;span style=&quot;color: #000000&quot;&gt;APP&lt;/span&gt;&lt;/pre&gt;&lt;/pre&gt;" style="shape=umlLifeline;perimeter=lifelinePerimeter;whiteSpace=wrap;html=1;container=1;collapsible=0;recursiveResize=0;outlineConnect=0;fontColor=#000000;strokeColor=#000000;" vertex="1" parent="tTd5XeurAu-LsHAUUfJ8-1">
          <mxGeometry x="-190" y="200" width="170" height="310" as="geometry" />
        </mxCell>
        <mxCell id="zwzFxI7Tmcitpvf1WoeE-9" value="" style="html=1;points=[];perimeter=orthogonalPerimeter;fontColor=#000000;strokeColor=#000000;" vertex="1" parent="zwzFxI7Tmcitpvf1WoeE-8">
          <mxGeometry x="77.5" y="60" width="15" height="80" as="geometry" />
        </mxCell>
        <mxCell id="JHd_3gbWwWkndSf7Ne55-2" value="&lt;pre style=&quot;background-color: rgb(255 , 255 , 255) ; font-family: &amp;#34;jetbrains mono&amp;#34; , monospace ; font-size: 9.8pt&quot;&gt;matchDriverList&lt;/pre&gt;" style="text;html=1;strokeColor=none;fillColor=none;align=center;verticalAlign=middle;whiteSpace=wrap;rounded=0;fontColor=#000000;" vertex="1" parent="zwzFxI7Tmcitpvf1WoeE-8">
          <mxGeometry x="-31" y="52" width="110" height="30" as="geometry" />
        </mxCell>
        <mxCell id="zwzFxI7Tmcitpvf1WoeE-11" value="" style="endArrow=classic;html=1;rounded=0;fontColor=#000000;edgeStyle=orthogonalEdgeStyle;" edge="1" parent="zwzFxI7Tmcitpvf1WoeE-8">
          <mxGeometry relative="1" as="geometry">
            <mxPoint x="-20" y="50" as="sourcePoint" />
            <mxPoint x="80" y="50" as="targetPoint" />
          </mxGeometry>
        </mxCell>
        <mxCell id="zwzFxI7Tmcitpvf1WoeE-12" value="待车主接单" style="edgeLabel;resizable=0;html=1;align=center;verticalAlign=middle;fontColor=#000000;strokeColor=#000000;" connectable="0" vertex="1" parent="zwzFxI7Tmcitpvf1WoeE-11">
          <mxGeometry relative="1" as="geometry">
            <mxPoint as="offset" />
          </mxGeometry>
        </mxCell>
        <mxCell id="zwzFxI7Tmcitpvf1WoeE-14" style="edgeStyle=orthogonalEdgeStyle;rounded=0;orthogonalLoop=1;jettySize=auto;html=1;exitX=0.5;exitY=1;exitDx=0;exitDy=0;fontColor=#000000;" edge="1" parent="zwzFxI7Tmcitpvf1WoeE-8" source="JHd_3gbWwWkndSf7Ne55-2" target="JHd_3gbWwWkndSf7Ne55-2">
          <mxGeometry relative="1" as="geometry" />
        </mxCell>
        <mxCell id="zwzFxI7Tmcitpvf1WoeE-15" style="edgeStyle=orthogonalEdgeStyle;rounded=0;orthogonalLoop=1;jettySize=auto;html=1;fontColor=#000000;dashed=1;" edge="1" parent="tTd5XeurAu-LsHAUUfJ8-1" source="JHd_3gbWwWkndSf7Ne55-1">
          <mxGeometry relative="1" as="geometry">
            <mxPoint x="-98" y="320" as="targetPoint" />
            <Array as="points">
              <mxPoint x="-98" y="320" />
            </Array>
          </mxGeometry>
        </mxCell>
        <mxCell id="zwzFxI7Tmcitpvf1WoeE-16" value="&lt;pre style=&quot;background-color: #ffffff ; color: #080808 ; font-family: &amp;#34;jetbrains mono&amp;#34; , monospace ; font-size: 9.8pt&quot;&gt;&lt;pre style=&quot;font-family: &amp;#34;jetbrains mono&amp;#34; , monospace ; font-size: 9.8pt&quot;&gt;&lt;pre style=&quot;font-family: &amp;#34;jetbrains mono&amp;#34; , monospace ; font-size: 9.8pt&quot;&gt;&lt;pre style=&quot;font-family: &amp;#34;jetbrains mono&amp;#34; , monospace ; font-size: 9.8pt&quot;&gt;&lt;span style=&quot;color: #000000&quot;&gt;PassengerRouteManager&lt;/span&gt;&lt;/pre&gt;&lt;/pre&gt;&lt;/pre&gt;&lt;/pre&gt;" style="shape=umlLifeline;perimeter=lifelinePerimeter;whiteSpace=wrap;html=1;container=1;collapsible=0;recursiveResize=0;outlineConnect=0;fontColor=#000000;strokeColor=#000000;" vertex="1" parent="tTd5XeurAu-LsHAUUfJ8-1">
          <mxGeometry x="610" y="200" width="220" height="310" as="geometry" />
        </mxCell>
        <mxCell id="zwzFxI7Tmcitpvf1WoeE-17" value="" style="html=1;points=[];perimeter=orthogonalPerimeter;fontColor=#000000;strokeColor=#000000;" vertex="1" parent="zwzFxI7Tmcitpvf1WoeE-16">
          <mxGeometry x="105" y="150" width="10" height="80" as="geometry" />
        </mxCell>
        <mxCell id="zwzFxI7Tmcitpvf1WoeE-19" style="edgeStyle=orthogonalEdgeStyle;rounded=0;orthogonalLoop=1;jettySize=auto;html=1;fontColor=#000000;" edge="1" parent="tTd5XeurAu-LsHAUUfJ8-1" source="cEPZh_uHa1H75nuR59wo-1" target="zwzFxI7Tmcitpvf1WoeE-16">
          <mxGeometry relative="1" as="geometry" />
        </mxCell>
        <mxCell id="zwzFxI7Tmcitpvf1WoeE-20" value="&lt;pre style=&quot;color: rgb(8 , 8 , 8) ; font-family: &amp;#34;jetbrains mono&amp;#34; , monospace ; font-size: 9.8pt&quot;&gt;selectPassengerRouteWithCache&lt;/pre&gt;" style="edgeLabel;html=1;align=center;verticalAlign=middle;resizable=0;points=[];fontColor=#000000;" vertex="1" connectable="0" parent="zwzFxI7Tmcitpvf1WoeE-19">
          <mxGeometry x="0.0714" y="-1" relative="1" as="geometry">
            <mxPoint as="offset" />
          </mxGeometry>
        </mxCell>
        <mxCell id="zwzFxI7Tmcitpvf1WoeE-21" style="edgeStyle=orthogonalEdgeStyle;rounded=0;orthogonalLoop=1;jettySize=auto;html=1;fontColor=#000000;dashed=1;" edge="1" parent="tTd5XeurAu-LsHAUUfJ8-1" source="zwzFxI7Tmcitpvf1WoeE-17">
          <mxGeometry relative="1" as="geometry">
            <mxPoint x="468" y="380" as="targetPoint" />
            <Array as="points">
              <mxPoint x="468" y="380" />
            </Array>
          </mxGeometry>
        </mxCell>
        <mxCell id="zwzFxI7Tmcitpvf1WoeE-22" value="ifnull 行程不存在&lt;br&gt;" style="edgeLabel;html=1;align=center;verticalAlign=middle;resizable=0;points=[];fontColor=#000000;" vertex="1" connectable="0" parent="zwzFxI7Tmcitpvf1WoeE-21">
          <mxGeometry x="0.193" y="-4" relative="1" as="geometry">
            <mxPoint as="offset" />
          </mxGeometry>
        </mxCell>
        <mxCell id="zwzFxI7Tmcitpvf1WoeE-25" value="&lt;pre style=&quot;background-color: #ffffff ; color: #080808 ; font-family: &amp;#34;jetbrains mono&amp;#34; , monospace ; font-size: 9.8pt&quot;&gt;&lt;pre style=&quot;font-family: &amp;#34;jetbrains mono&amp;#34; , monospace ; font-size: 9.8pt&quot;&gt;&lt;pre style=&quot;font-family: &amp;#34;jetbrains mono&amp;#34; , monospace ; font-size: 9.8pt&quot;&gt;&lt;pre style=&quot;font-family: &amp;#34;jetbrains mono&amp;#34; , monospace ; font-size: 9.8pt&quot;&gt;&lt;span style=&quot;color: #000000&quot;&gt;redis&lt;/span&gt;&lt;/pre&gt;&lt;/pre&gt;&lt;/pre&gt;&lt;/pre&gt;" style="shape=umlLifeline;perimeter=lifelinePerimeter;whiteSpace=wrap;html=1;container=1;collapsible=0;recursiveResize=0;outlineConnect=0;fontColor=#000000;strokeColor=#000000;" vertex="1" parent="tTd5XeurAu-LsHAUUfJ8-1">
          <mxGeometry x="835" y="200" width="170" height="310" as="geometry" />
        </mxCell>
        <mxCell id="zwzFxI7Tmcitpvf1WoeE-26" value="" style="html=1;points=[];perimeter=orthogonalPerimeter;fontColor=#000000;strokeColor=#000000;" vertex="1" parent="zwzFxI7Tmcitpvf1WoeE-25">
          <mxGeometry x="80" y="170" width="10" height="80" as="geometry" />
        </mxCell>
        <mxCell id="zwzFxI7Tmcitpvf1WoeE-30" value="&lt;pre style=&quot;background-color: #ffffff ; color: #080808 ; font-family: &amp;#34;jetbrains mono&amp;#34; , monospace ; font-size: 9.8pt&quot;&gt;&lt;span style=&quot;color: #067d17&quot;&gt;hotwheel:route:passenger:routId&lt;/span&gt;&lt;/pre&gt;" style="text;whiteSpace=wrap;html=1;fontColor=#000000;" vertex="1" parent="zwzFxI7Tmcitpvf1WoeE-25">
          <mxGeometry x="10" y="130" width="210" height="60" as="geometry" />
        </mxCell>
        <mxCell id="zwzFxI7Tmcitpvf1WoeE-27" value="&lt;pre style=&quot;background-color: #ffffff ; color: #080808 ; font-family: &amp;#34;jetbrains mono&amp;#34; , monospace ; font-size: 9.8pt&quot;&gt;&lt;pre style=&quot;font-family: &amp;#34;jetbrains mono&amp;#34; , monospace ; font-size: 9.8pt&quot;&gt;&lt;pre style=&quot;font-family: &amp;#34;jetbrains mono&amp;#34; , monospace ; font-size: 9.8pt&quot;&gt;&lt;pre style=&quot;font-family: &amp;#34;jetbrains mono&amp;#34; , monospace ; font-size: 9.8pt&quot;&gt;&lt;span style=&quot;color: #000000&quot;&gt;DB&lt;/span&gt;&lt;/pre&gt;&lt;/pre&gt;&lt;/pre&gt;&lt;/pre&gt;" style="shape=umlLifeline;perimeter=lifelinePerimeter;whiteSpace=wrap;html=1;container=1;collapsible=0;recursiveResize=0;outlineConnect=0;fontColor=#000000;strokeColor=#000000;" vertex="1" parent="tTd5XeurAu-LsHAUUfJ8-1">
          <mxGeometry x="1010" y="200" width="120" height="310" as="geometry" />
        </mxCell>
        <mxCell id="zwzFxI7Tmcitpvf1WoeE-28" value="" style="html=1;points=[];perimeter=orthogonalPerimeter;fontColor=#000000;strokeColor=#000000;" vertex="1" parent="zwzFxI7Tmcitpvf1WoeE-27">
          <mxGeometry x="55" y="170" width="10" height="80" as="geometry" />
        </mxCell>
        <mxCell id="zwzFxI7Tmcitpvf1WoeE-29" value="&lt;pre style=&quot;background-color: #ffffff ; color: #080808 ; font-family: &amp;#34;jetbrains mono&amp;#34; , monospace ; font-size: 9.8pt&quot;&gt;&lt;span style=&quot;background-color: #edfced&quot;&gt;hw_passenger_route&lt;/span&gt;&lt;/pre&gt;" style="text;html=1;strokeColor=none;fillColor=none;align=center;verticalAlign=middle;whiteSpace=wrap;rounded=0;shadow=0;fontColor=#000000;opacity=0;" vertex="1" parent="zwzFxI7Tmcitpvf1WoeE-27">
          <mxGeometry x="110" y="170" width="60" height="30" as="geometry" />
        </mxCell>
      </root>
    </mxGraphModel>
  </diagram>
</mxfile>
